<svg width="28" height="30" viewBox="0 0 28 30" fill="none" xmlns="http://www.w3.org/2000/svg">
<path d="M25.2141 17.6554L27.471 5.46791C27.634 4.58795 27.089 3.75 26.3537 3.75H7.60108L7.16346 1.12441C7.05442 0.469981 6.5852 0 6.04088 0H1.14583C0.512999 0 0 0.62959 0 1.40625V2.34375C0 3.12041 0.512999 3.75 1.14583 3.75H4.48226L7.83611 23.8731C7.03374 24.4395 6.49306 25.5013 6.49306 26.7188C6.49306 28.5309 7.69007 30 9.16667 30C10.6433 30 11.8403 28.5309 11.8403 26.7188C11.8403 25.8004 11.5325 24.9706 11.037 24.375H21.0462C20.5509 24.9706 20.2431 25.8004 20.2431 26.7188C20.2431 28.5309 21.4401 30 22.9167 30C24.3933 30 25.5903 28.5309 25.5903 26.7188C25.5903 25.4196 24.975 24.297 24.0826 23.7653L24.346 22.3429C24.5089 21.4629 23.964 20.625 23.2287 20.625H10.4136L10.1011 18.75H24.0967C24.6317 18.75 25.0955 18.2957 25.2141 17.6554Z" fill="#DDDDDD"/>
</svg>
