<svg width="15" height="17" viewBox="0 0 15 17" fill="none" xmlns="http://www.w3.org/2000/svg">
<path d="M14.796 14.4882L11.8749 11.2729C11.743 11.1277 11.5643 11.0471 11.3768 11.0471H10.8992C11.7079 9.90867 12.1884 8.47676 12.1884 6.91907C12.1884 3.21351 9.46065 0.211009 6.0942 0.211009C2.72774 0.211009 0 3.21351 0 6.91907C0 10.6246 2.72774 13.6271 6.0942 13.6271C7.50934 13.6271 8.81021 13.0982 9.84447 12.2081V12.7338C9.84447 12.9402 9.91772 13.1369 10.0496 13.2821L12.9707 16.4974C13.2461 16.8006 13.6914 16.8006 13.9639 16.4974L14.7931 15.5847C15.0685 15.2816 15.0685 14.7914 14.796 14.4882ZM6.0942 11.0471C4.02276 11.0471 2.34392 9.20239 2.34392 6.91907C2.34392 4.63897 4.01982 2.79103 6.0942 2.79103C8.16564 2.79103 9.84447 4.63575 9.84447 6.91907C9.84447 9.19917 8.16857 11.0471 6.0942 11.0471Z" fill="#DDDDDD"/>
</svg>
